#!OML:ASF F:\VICON\USERDATA\Patient Classification 1\PLAYGROUND\JustinFriday\JustinFriday.ASF
:FULLY-SPECIFIED
:DEGREES
2418
root -0.957751 17.7995 36.0946 -541.472 -163.446 178.446
lowerback 14.3103 2.08619 -1.95257
upperback -0.530001 2.73212 3.33345
thorax -8.88918 1.49384 4.10084
lowerneck -6.21966 6.62173 -2.69683
upperneck 30.3977 11.0409 -3.81918
head 10.921 4.28704 0.285119
rclavicle 1.31198e-014 2.38542e-015
rhumerus -31.1065 -3.21065 -71.6191
rradius 36.4685
rwrist -14.9561
rhand -18.5152 -22.8049
rfingers 7.12502
rthumb 7.77304 -412.642
lclavicle 1.31198e-014 2.38542e-015
lhumerus -41.3145 12.7316 80.9149
lradius 23.5909
lwrist -5.57584
lhand -5.00852 -4.3598
lfingers 7.12502
lthumb 20.7852 24.5469
rfemur -6.55686 -5.23365 15.0608
rtibia 63.6892
rfoot 0.947589 -17.0577
rtoes 23.2535
lfemur -8.03172 6.52668 -24.5804
ltibia 20.2823
lfoot -7.10784 -0.524519
ltoes 22.9366
2419
root -0.981427 17.7967 36.1662 -540.446 -164.668 177.251
lowerback 14.4342 1.84837 -1.14081
upperback -1.10196 2.60809 3.72557
thorax -9.5587 1.42256 4.09117
lowerneck -5.89574 6.64413 -2.66214
upperneck 30.5672 11.0692 -3.81426
head 10.9252 4.30794 0.272995
rclavicle -5.61318e-014 1.11319e-014
rhumerus -31.5672 -3.07006 -71.7055
rradius 36.1118
rwrist -14.832
rhand -17.5458 -23.6188
rfingers 7.12502
rthumb 8.70863 -413.419
lclavicle -5.61318e-014 1.11319e-014
lhumerus -41.8931 12.1348 81.2707
lradius 25.3479
lwrist -5.06582
lhand -5.49077 -4.37157
lfingers 7.12502
lthumb 20.3218 24.5852
rfemur -9.00792 -5.22607 17.0115
rtibia 65.0608
rfoot 0.537763 -16.52
rtoes 22.7549
lfemur -8.3894 6.03678 -23.4425
ltibia 19.5617
lfoot -6.47224 -1.07841
ltoes 20.8834
2420
root -0.99754 17.7828 36.2731 -540.433 -165.901 176.815
lowerback 14.8808 1.61989 -0.831783
upperback -1.38565 2.38615 3.86401
thorax -10.1042 1.31359 4.11507
lowerneck -5.63743 6.617 -2.69362
upperneck 30.8563 11.0025 -3.6458
head 10.9716 4.28939 0.32387
rclavicle -4.36084e-014 -3.33958e-014
rhumerus -32.2357 -3.15589 -71.838
rradius 35.9957
rwrist -14.6627
rhand -17.0827 -24.1534
rfingers 7.12502
rthumb 9.15557 -413.935
lclavicle -4.36084e-014 -3.33958e-014
lhumerus -41.2738 11.1102 81.7557
lradius 24.3119
lwrist -4.06623
lhand -6.63364 -5.89893
lfingers 7.12502
lthumb 19.2231 23.171
rfemur -10.325 -5.39855 17.7516
rtibia 66.3247
rfoot -0.209688 -15.5815
rtoes 22.817
lfemur -7.36049 5.40344 -23.0737
ltibia 18.3874
lfoot -5.96756 -1.50788
ltoes 19.9968
2421
root -0.974795 17.734 36.3992 -541.5 -168.701 182.022
lowerback 15.02 1.3805 -5.03594
upperback -1.64501 1.14498 2.33854
thorax -10.4299 0.921955 5.14931
lowerneck -5.62068 6.51564 -2.72357
upperneck 31.2204 10.8783 -3.54881
head 11.1007 4.22921 0.355836
rclavicle 1.04362e-014 -8.74653e-015
rhumerus -32.9625 -3.75584 -71.696
rradius 35.8496
rwrist -14.4973
rhand -17.503 -23.2766
rfingers 7.12502
rthumb 8.74996 -413.075
lclavicle 1.04362e-014 -8.74653e-015
lhumerus -41.6852 10.4793 82.1796
lradius 26.1457
lwrist -3.70932
lhand -7.00452 -5.97586
lfingers 7.12502
lthumb 18.8665 23.1292
rfemur -11.4133 -8.37608 10.6599
rtibia 67.8707
rfoot -0.155929 -11.9635
rtoes 20.3729
lfemur -6.24019 4.093 -29.3555
ltibia 17.2872
lfoot -5.54855 -2.48164
ltoes 20.722
2422
root -0.955437 17.6526 36.518 -542.421 -170.316 186.02
lowerback 15.4652 1.5474 -8.1875
upperback -1.72797 0.614612 1.13942
thorax -10.7573 0.826707 5.76071
lowerneck -5.19251 6.38723 -2.70967
upperneck 30.9663 10.7086 -3.72335
head 10.9289 4.16127 0.2517
rclavicle -5.24295e-015 7.95139e-015
rhumerus -33.4877 -4.25572 -71.5112
rradius 35.3557
rwrist -14.3791
rhand -18.2508 -22.2385
rfingers 7.12502
rthumb 8.02826 -412.066
lclavicle -5.24295e-015 7.95139e-015
lhumerus -41.7208 9.66142 82.7631
lradius 27.7256
lwrist -3.29774
lhand -7.372 -4.84533
lfingers 7.12502
lthumb 18.513 24.2937
rfemur -12.4941 -9.85888 5.08407
rtibia 69.1725
rfoot 0.377584 -8.81833
rtoes 15.0589
lfemur -4.7226 3.92118 -34.1666
ltibia 15.8073
lfoot -4.91896 -3.33474
ltoes 21.3274
2423
root -0.963983 17.6511 36.6582 -542.31 -171.177 186.405
lowerback 15.2631 1.54208 -8.47918
upperback -1.84827 0.549551 0.984202
thorax -10.7692 0.812096 5.77031
lowerneck -5.31971 6.35497 -3.00925
upperneck 31.5358 10.5809 -3.06064
head 11.1107 4.12165 0.538201
rclavicle -1.29334e-014 8.74653e-015
rhumerus -33.8982 -4.45027 -71.5943
rradius 34.8363
rwrist -14.1654
rhand -18.2143 -22.0282
rfingers 7.12502
rthumb 8.06347 -411.854
lclavicle -1.29334e-014 8.74653e-015
lhumerus -41.6733 8.78251 83.1544
lradius 28.8867
lwrist -2.66441
lhand -7.88235 -4.14464
lfingers 7.12502
lthumb 18.022 25.0404
rfemur -13.8286 -9.69716 4.80168
rtibia 69.7809
rfoot -0.167052 -7.98396
rtoes 10.7699
lfemur -3.66676 3.87526 -34.6695
ltibia 14.4242
lfoot -4.34956 -4.02318
ltoes 21.7402
2424
root -0.989321 17.6977 36.8058 -542.029 -171.777 184.993
lowerback 15.0132 1.48813 -7.35152
upperback -1.89606 0.747404 1.32471
thorax -10.6883 0.849015 5.45375
lowerneck -5.26633 6.24891 -3.1049
upperneck 31.7868 10.3423 -2.63562
head 11.161 4.04548 0.683014
rclavicle 6.11263e-015 2.38542e-015
rhumerus -34.3999 -4.98742 -71.6821
rradius 34.5612
rwrist -13.921
rhand -17.6214 -22.1049
rfingers 7.12502
rthumb 8.63566 -411.908
lclavicle 6.11263e-015 2.38542e-015
lhumerus -41.4637 7.72039 83.5347
lradius 29.661
lwrist -1.66016
lhand -8.73262 -4.69802
lfingers 7.12502
lthumb 17.2038 24.5604
rfemur -14.8707 -8.59061 7.27659
rtibia 69.6092
rfoot -1.06632 -8.63986
rtoes 13.6602
lfemur -3.86236 3.69597 -32.9207
ltibia 15.6839
lfoot -5.07032 -4.6051
ltoes 21.8508
2425
root -1.00674 17.7287 36.9571 -542.073 -171.985 182.8
lowerback 15.0411 1.56219 -5.26768
upperback -1.79759 1.29044 1.83365
thorax -10.6241 0.995728 4.68975
lowerneck -5.02439 6.05235 -3.00727
upperneck 31.7578 10.021 -2.58204
head 11.1013 3.92741 0.642092
rclavicle 6.78353e-015 -1.35174e-014
rhumerus -34.9873 -5.81073 -71.6547
rradius 34.3432
rwrist -13.5819
rhand -17.1984 -22.4749
rfingers 7.12502
rthumb 9.04393 -412.261
lclavicle 6.78353e-015 -1.35174e-014
lhumerus -41.316 6.8453 83.8566
lradius 30.7988
lwrist -0.795628
lhand -9.38017 -4.93208
lfingers 7.12502
lthumb 16.5805 24.3796
rfemur -15.4071 -7.04624 10.5605
rtibia 69.0778
rfoot -1.34901 -9.29668
rtoes 13.6207
lfemur -3.91975 3.77555 -30.2994
ltibia 17.5692
lfoot -6.56718 -5.27915
ltoes 20.7491
2426
root -1.02386 17.7577 37.1025 -542.097 -171.427 177.936
lowerback 15.5167 1.65895 -0.538922
upperback -1.59921 2.43018 3.07964
thorax -10.6585 1.29679 3.06985
lowerneck -4.51158 5.96825 -2.44475
upperneck 31.2616 9.87396 -2.97754
head 10.86 3.91548 0.364277
rclavicle -2.20527e-014 -2.70347e-014
rhumerus -35.5104 -6.45843 -71.6593
rradius 34.0265
rwrist -13.1492
rhand -17.2094 -22.6622
rfingers 7.12502
rthumb 9.03326 -412.449
lclavicle -2.20527e-014 -2.70347e-014
lhumerus -41.3615 6.09017 84.1718
lradius 32.36
lwrist 0.0576263
lhand -10.3262 -5.11739
lfingers 7.12502
lthumb 15.6695 24.2681
rfemur -15.6155 -4.38899 17.1323
rtibia 68.2014
rfoot -1.48507 -10.7113
rtoes 12.8024
lfemur -3.54621 4.3202 -24.5978
ltibia 19.2959
lfoot -8.25447 -5.79291
ltoes 18.7043
2427
root -1.04071 17.7485 37.2008 -541.84 -172.607 178.691
lowerback 15.4123 1.73734 -1.18581
upperback -1.76637 2.38605 2.79192
thorax -10.7958 1.30752 3.13582
lowerneck -5.05881 5.73294 -2.97608
upperneck 31.8534 9.44684 -2.09615
head 11.1116 3.73188 0.755889
rclavicle 9.57894e-015 4.77083e-015
rhumerus -35.8833 -6.96989 -71.6457
rradius 33.5996
rwrist -13.1132
rhand -17.3493 -22.3492
rfingers 7.12502
rthumb 8.89827 -412.142
lclavicle 9.57894e-015 4.77083e-015
lhumerus -41.0029 5.1689 84.5825
lradius 33.489
lwrist 0.290034
lhand -10.725 -4.89637
lfingers 7.12502
lthumb 15.2854 24.5188
rfemur -17.2774 -4.43262 16.4068
rtibia 67.9213
rfoot -2.17666 -10.2836
rtoes 13.4253
lfemur -4.25489 4.14688 -25.4579
ltibia 20.5917
lfoot -9.06489 -6.82388
ltoes 17.5936
